HIERARCHY
ROOT hip
{
	OFFSET 0.000000 0.000000 0.000000 
	CHANNELS 6 Xposition Yposition Zposition Xrotation Zrotation Yrotation
	JOINT abdomen
	{
		OFFSET 0.000000 3.402643 0.000000 
		CHANNELS 3 Xrotation Zrotation Yrotation
		JOINT chest
		{
			OFFSET 0.000000 8.438565 -0.680529 
			CHANNELS 3 Xrotation Zrotation Yrotation
			JOINT neck
			{
				OFFSET 0.000000 10.207942 -0.272212 
				CHANNELS 3 Xrotation Zrotation Yrotation
				JOINT head
				{
					OFFSET 0.000000 3.130431 0.000000 
					CHANNELS 3 Xrotation Zrotation Yrotation
					End Site
					{
						OFFSET 0.000000 3.130435 0.000000 
					}
				}
			}
			JOINT lCollar
			{
				OFFSET 3.470700 6.669187 -0.816635 
				CHANNELS 3 Yrotation Zrotation Xrotation
				JOINT lShldr
				{
					OFFSET 3.198488 0.000000 0.000000 
					CHANNELS 3 Zrotation Yrotation Xrotation
					JOINT lForeArm
					{
						OFFSET 10.139888 0.000000 0.000000 
						CHANNELS 3 Yrotation Zrotation Xrotation
						JOINT lHand
						{
							OFFSET 8.370511 0.000000 0.000000 
							CHANNELS 3 Zrotation Yrotation Xrotation
							End Site
							{
								OFFSET 4.083176 0.000000 0.000000 
							}
						}
					}
				}
			}
			JOINT rCollar
			{
				OFFSET -3.470700 6.669187 -0.816635 
				CHANNELS 3 Yrotation Zrotation Xrotation
				JOINT rShldr
				{
					OFFSET -3.198488 0.000000 0.000000 
					CHANNELS 3 Zrotation Yrotation Xrotation
					JOINT rForeArm
					{
						OFFSET -10.139888 0.000000 0.000000 
						CHANNELS 3 Yrotation Zrotation Xrotation
						JOINT rHand
						{
							OFFSET -8.370511 0.000000 0.000000 
							CHANNELS 3 Zrotation Yrotation Xrotation
							End Site
							{
								OFFSET -4.083176 0.000000 0.000000 
							}
						}
					}
				}
			}
		}
	}
	JOINT lThigh
	{
		OFFSET 5.308129 -1.633274 1.361059 
		CHANNELS 3 Xrotation Zrotation Yrotation
		JOINT lShin
		{
			OFFSET -2.041588 -20.007561 0.000000 
			CHANNELS 3 Xrotation Zrotation Yrotation
			JOINT lFoot
			{
				OFFSET 0.000000 -19.190928 -1.224953 
				CHANNELS 3 Xrotation Yrotation Zrotation
				End Site
				{
					OFFSET 0.000000 -2.449906 4.627600 
				}
			}
		}
	}
	JOINT rThigh
	{
		OFFSET -5.308129 -1.633274 1.361059 
		CHANNELS 3 Xrotation Zrotation Yrotation
		JOINT rShin
		{
			OFFSET 2.041588 -20.007561 0.000000 
			CHANNELS 3 Xrotation Zrotation Yrotation
			JOINT rFoot
			{
				OFFSET 0.000000 -19.190928 -1.224953 
				CHANNELS 3 Xrotation Yrotation Zrotation
				End Site
				{
					OFFSET 0.000000 -2.449906 4.627600 
				}
			}
		}
	}
}
MOTION
Frames: 7
Frame Time: 0.016667
0.000000 49.583965 -0.456700 -2.285156 0.000000 0.000000 8.613282 5.097657 3.877821 2.460938 0.000000 0.000000 -5.615234 -2.031250 0.400045 5.595703 2.050781 -0.214844 0.000000 0.000000 0.000000 -77.509766 1.865234 0.176102 -0.683594 -5.947266 6.044921 3.398438 -0.849609 -6.152472 0.000000 0.000000 0.000000 78.730469 -1.669922 0.380575 -0.039063 3.134766 5.078125 -2.050781 1.523438 -5.429688 0.507950 3.808156 0.042158 3.617089 -3.792453 -0.549953 -1.579340 0.089693 0.024933 0.332011 -5.429360 -0.341790 3.613008 4.970714 0.204059 -1.886455 0.285573 0.313417 
0.000000 49.301743 -1.370100 -4.755859 0.000000 0.000000 8.613282 5.097657 3.877821 5.087891 0.000000 0.000000 -5.615234 -2.031250 0.400045 5.595703 2.050781 -0.214844 0.000000 0.000000 0.000000 -75.048828 1.865234 0.176102 -0.683594 -5.947266 6.044921 3.398438 -0.849609 -6.152472 0.000000 0.000000 0.000000 76.621094 -1.669922 0.380575 -0.039063 3.134766 5.078125 -2.050781 1.523438 -5.429688 -1.893383 3.757897 0.142350 10.147612 -3.844573 -1.018605 -3.153794 0.056111 0.012505 -1.737823 -5.349793 -0.398991 9.734985 4.862348 0.851698 -4.375288 0.203722 0.277070 
0.000000 48.918209 -1.826799 -7.207031 0.000000 0.000000 8.613282 5.097657 3.877821 7.724609 0.000000 0.000000 -5.615234 -2.031250 0.400045 5.595703 2.050781 -0.214844 0.000000 0.000000 0.000000 -71.357422 1.865235 0.175781 -0.683594 -5.947266 6.044921 3.398438 -0.849609 -6.152472 0.000000 0.000000 0.000000 74.160156 -1.669922 0.380577 -0.039063 3.134766 5.078125 -2.050781 1.523438 -5.429688 -4.362487 3.796437 0.239457 17.151571 -3.680886 -1.697515 -5.270992 0.149947 0.064893 -4.198472 -5.408962 -0.461905 16.552208 4.697030 1.568825 -7.012880 0.261309 0.299643 
0.000000 48.368233 -2.740200 -9.677734 0.000000 0.000000 8.613282 5.097657 3.877821 10.195313 0.000000 0.000000 -5.615234 -2.031250 0.400045 5.595703 2.050781 -0.214844 0.000000 0.000000 0.000000 -69.423836 1.865234 0.175782 -0.683594 -5.947266 6.044921 3.398438 -0.849609 -6.152472 0.000000 0.000000 0.000000 72.578125 -1.669922 0.380859 -0.039063 3.134766 5.078125 -2.050781 1.523438 -5.429688 -6.749421 3.784209 0.145058 23.950609 -3.691605 -1.828465 -7.361703 0.072703 0.225753 -6.268732 -5.399701 -0.355397 23.090855 4.526137 1.891147 -9.298139 0.310809 0.320147 
0.000000 47.666279 -3.196900 -12.138672 0.000000 0.000000 8.613282 5.097657 3.877821 12.832032 0.000000 0.000000 -5.615234 -2.031250 0.400045 5.595703 2.050781 -0.214844 0.000000 0.000000 0.000000 -67.314461 1.865234 0.175782 -0.683594 -5.947266 6.044921 3.398438 -0.849609 -6.152472 0.000000 0.000000 0.000000 70.292969 -1.669922 0.380859 -0.039063 3.134766 5.078125 -2.050781 1.523438 -5.429688 -9.258249 3.824062 0.241640 30.736561 -3.184487 -2.364707 -9.140255 0.076886 0.036401 -8.599951 -5.447258 -0.558759 29.382528 4.096376 2.646139 -11.754190 0.201549 0.296761 
0.000000 46.790676 -4.110300 -14.599609 0.000000 0.000000 8.613282 5.097657 3.877821 15.458984 0.000000 0.000000 -5.615234 -2.031250 0.400045 5.595703 2.050781 -0.214844 0.000000 0.000000 0.000000 -67.490234 1.865234 0.176102 -0.683594 -5.947266 6.044921 3.398438 -0.849609 -6.152472 0.000000 0.000000 0.000000 69.765625 -1.669922 0.380577 -0.039063 3.134766 5.078125 -2.050781 1.523438 -5.429688 -11.708122 3.808146 0.161267 37.626369 -3.195255 -2.673975 -11.058817 0.333640 0.154041 -10.829408 -5.419648 -0.623376 36.143215 3.739329 3.228148 -14.212643 0.389917 0.206240 
0.000000 45.792038 -4.566999 -17.050779 0.000000 0.000000 8.613282 5.097657 3.877821 18.105469 0.000000 0.000000 -5.615234 -2.031250 0.400045 5.595703 2.050781 -0.214844 0.000000 0.000000 0.000000 -67.490234 1.865234 0.176102 -0.683594 -5.947266 6.044921 3.398438 -0.849609 -6.152472 0.000000 0.000000 0.000000 69.765625 -1.669922 0.380577 -0.039063 3.134766 5.078125 -2.050781 1.523438 -5.429688 -14.097931 3.797436 0.264209 44.517742 -2.739983 -3.202460 -13.001451 0.380440 0.196110 -13.141829 -5.448294 -0.677985 42.895496 3.378552 3.644229 -16.852461 0.298422 0.166737 
